<?xml version="1.0" encoding="UTF-8" standalone="no"?>
<svg
   xmlns:dc="http://purl.org/dc/elements/1.1/"
   xmlns:cc="http://creativecommons.org/ns#"
   xmlns:rdf="http://www.w3.org/1999/02/22-rdf-syntax-ns#"
   xmlns:svg="http://www.w3.org/2000/svg"
   xmlns="http://www.w3.org/2000/svg"
   xmlns:sodipodi="http://sodipodi.sourceforge.net/DTD/sodipodi-0.dtd"
   xmlns:inkscape="http://www.inkscape.org/namespaces/inkscape"
   version="1.1"
   id="svg5275"
   viewBox="0 0 167.88007 129.04586"
   height="36.419609mm"
   width="47.379486mm"
   inkscape:version="0.91 r13725"
   sodipodi:docname="set-of-three.svg">
  <sodipodi:namedview
     pagecolor="#ffffff"
     bordercolor="#666666"
     borderopacity="1"
     objecttolerance="10"
     gridtolerance="10"
     guidetolerance="10"
     inkscape:pageopacity="0"
     inkscape:pageshadow="2"
     inkscape:window-width="701"
     inkscape:window-height="480"
     id="namedview25"
     showgrid="false"
     inkscape:zoom="1.7631634"
     inkscape:cx="83.940034"
     inkscape:cy="63.955767"
     inkscape:window-x="0"
     inkscape:window-y="0"
     inkscape:window-maximized="0"
     inkscape:current-layer="svg5275" />
  <defs
     id="defs5277" />
  <metadata
     id="metadata5280">
    <rdf:RDF>
      <cc:Work
         rdf:about="">
        <dc:format>image/svg+xml</dc:format>
        <dc:type
           rdf:resource="http://purl.org/dc/dcmitype/StillImage" />
        <dc:title />
      </cc:Work>
    </rdf:RDF>
  </metadata>
  <rect
     style="opacity:1;fill:#dbe2e3;fill-opacity:1;stroke:#162d50;stroke-width:1.99869037;stroke-linecap:round;stroke-miterlimit:4;stroke-dasharray:none;stroke-dashoffset:0;stroke-opacity:1"
     id="rect4146"
     width="72.333557"
     height="110.40385"
     x="-6.4069037"
     y="21.991764"
     ry="6.6623015"
     transform="matrix(0.96592582,-0.25881905,0.25881905,0.96592582,0,0)" />
  <g
     transform="matrix(0.64352889,-0.17243305,0.17243305,0.64352889,-85.891663,-24.869593)"
     style="font-style:normal;font-variant:normal;font-weight:normal;font-stretch:normal;font-size:40px;line-height:125%;font-family:'High Tide';-inkscape-font-specification:'High Tide';letter-spacing:0px;word-spacing:0px;fill:#162d50;fill-opacity:1;stroke:none;stroke-width:1px;stroke-linecap:butt;stroke-linejoin:miter;stroke-opacity:1"
     id="flowRoot4148">
    <path
       d="m 141.57742,126.19359 c 0.28,-0.28 0.52,-0.56 0.52,-1.04 l 0,-3.8 c 0,-0.52 -0.48,-0.92 -1.16,-0.92 l -15.08,0 c -0.6,0 -1.08,0.4 -1.08,0.92 l 0,2.8 c 0,0.6 0.48,0.96 1.08,0.96 l 9.68,0 -5.28,4.92 c -0.28,0.2 -0.4,0.76 -0.24,1.04 l -0.04,0 c 0.2,0.6 0.44,1.24 0.72,1.84 0.16,0.2 0.6,0.56 0.88,0.6 3.72,0.36 5.92,2 5.92,5.04 0,3.04 -2.44,5.56 -5.16,5.56 -1.64,0 -3.48,-1.08 -4.64,-2.8 -0.36,-0.52 -0.92,-0.64 -1.68,-0.28 l -2.28,1.44 c -0.48,0.28 -0.64,0.96 -0.32,1.32 1.88,3.2 5.12,5.08 8.92,5.08 5.64,0 10.44,-4.28 10.44,-10.32 0,-3.84 -2.24,-6.96 -5.92,-8.28 l 4.72,-4.08 z"
       style=""
       id="path4206" />
  </g>
  <rect
     ry="6.6623011"
     y="0.99934906"
     x="47.773254"
     height="110.40385"
     width="72.333557"
     id="rect4165"
     style="opacity:1;fill:#dbe2e3;fill-opacity:1;stroke:#162d50;stroke-width:1.99869037;stroke-linecap:round;stroke-miterlimit:4;stroke-dasharray:none;stroke-dashoffset:0;stroke-opacity:1" />
  <g
     transform="matrix(0.66623013,0,0,0.66623013,-22.348094,-67.244996)"
     style="font-style:normal;font-variant:normal;font-weight:normal;font-stretch:normal;font-size:40px;line-height:125%;font-family:'High Tide';-inkscape-font-specification:'High Tide';letter-spacing:0px;word-spacing:0px;fill:#162d50;fill-opacity:1;stroke:none;stroke-width:1px;stroke-linecap:butt;stroke-linejoin:miter;stroke-opacity:1"
     id="flowRoot4167">
    <path
       d="m 141.57742,126.19359 c 0.28,-0.28 0.52,-0.56 0.52,-1.04 l 0,-3.8 c 0,-0.52 -0.48,-0.92 -1.16,-0.92 l -15.08,0 c -0.6,0 -1.08,0.4 -1.08,0.92 l 0,2.8 c 0,0.6 0.48,0.96 1.08,0.96 l 9.68,0 -5.28,4.92 c -0.28,0.2 -0.4,0.76 -0.24,1.04 l -0.04,0 c 0.2,0.6 0.44,1.24 0.72,1.84 0.16,0.2 0.6,0.56 0.88,0.6 3.72,0.36 5.92,2 5.92,5.04 0,3.04 -2.44,5.56 -5.16,5.56 -1.64,0 -3.48,-1.08 -4.64,-2.8 -0.36,-0.52 -0.92,-0.64 -1.68,-0.28 l -2.28,1.44 c -0.48,0.28 -0.64,0.96 -0.32,1.32 1.88,3.2 5.12,5.08 8.92,5.08 5.64,0 10.44,-4.28 10.44,-10.32 0,-3.84 -2.24,-6.96 -5.92,-8.28 l 4.72,-4.08 z"
       style=""
       id="path4209" />
  </g>
  <rect
     style="opacity:1;fill:#dbe2e3;fill-opacity:1;stroke:#162d50;stroke-width:1.99869037;stroke-linecap:round;stroke-miterlimit:4;stroke-dasharray:none;stroke-dashoffset:0;stroke-opacity:1"
     id="rect4177"
     width="72.333557"
     height="110.40385"
     x="96.233032"
     y="-21.458792"
     ry="6.6623015"
     transform="matrix(0.96592582,0.25881905,-0.25881905,0.96592582,0,0)" />
  <g
     transform="matrix(0.64352889,0.17243305,-0.17243305,0.64352889,48.438835,-79.888374)"
     style="font-style:normal;font-variant:normal;font-weight:normal;font-stretch:normal;font-size:40px;line-height:125%;font-family:'High Tide';-inkscape-font-specification:'High Tide';letter-spacing:0px;word-spacing:0px;fill:#162d50;fill-opacity:1;stroke:none;stroke-width:1px;stroke-linecap:butt;stroke-linejoin:miter;stroke-opacity:1"
     id="flowRoot4179">
    <path
       d="m 141.57742,126.19359 c 0.28,-0.28 0.52,-0.56 0.52,-1.04 l 0,-3.8 c 0,-0.52 -0.48,-0.92 -1.16,-0.92 l -15.08,0 c -0.6,0 -1.08,0.4 -1.08,0.92 l 0,2.8 c 0,0.6 0.48,0.96 1.08,0.96 l 9.68,0 -5.28,4.92 c -0.28,0.2 -0.4,0.76 -0.24,1.04 l -0.04,0 c 0.2,0.6 0.44,1.24 0.72,1.84 0.16,0.2 0.6,0.56 0.88,0.6 3.72,0.36 5.92,2 5.92,5.04 0,3.04 -2.44,5.56 -5.16,5.56 -1.64,0 -3.48,-1.08 -4.64,-2.8 -0.36,-0.52 -0.92,-0.64 -1.68,-0.28 l -2.28,1.44 c -0.48,0.28 -0.64,0.96 -0.32,1.32 1.88,3.2 5.12,5.08 8.92,5.08 5.64,0 10.44,-4.28 10.44,-10.32 0,-3.84 -2.24,-6.96 -5.92,-8.28 l 4.72,-4.08 z"
       style=""
       id="path4212" />
  </g>
</svg>
