<?xml version="1.0" encoding="UTF-8" standalone="no"?>
<svg
   xmlns:dc="http://purl.org/dc/elements/1.1/"
   xmlns:cc="http://creativecommons.org/ns#"
   xmlns:rdf="http://www.w3.org/1999/02/22-rdf-syntax-ns#"
   xmlns:svg="http://www.w3.org/2000/svg"
   xmlns="http://www.w3.org/2000/svg"
   xmlns:sodipodi="http://sodipodi.sourceforge.net/DTD/sodipodi-0.dtd"
   xmlns:inkscape="http://www.inkscape.org/namespaces/inkscape"
   version="1.1"
   id="svg5275"
   viewBox="0 0 201.88011 132.48239"
   height="37.389473mm"
   width="56.975052mm"
   inkscape:version="0.91 r13725"
   sodipodi:docname="set-of-four.svg">
  <sodipodi:namedview
     pagecolor="#ffffff"
     bordercolor="#666666"
     borderopacity="1"
     objecttolerance="10"
     gridtolerance="10"
     guidetolerance="10"
     inkscape:pageopacity="0"
     inkscape:pageshadow="2"
     inkscape:window-width="701"
     inkscape:window-height="480"
     id="namedview31"
     showgrid="false"
     inkscape:zoom="1.4662168"
     inkscape:cx="100.94005"
     inkscape:cy="65.559165"
     inkscape:window-x="0"
     inkscape:window-y="0"
     inkscape:window-maximized="0"
     inkscape:current-layer="svg5275" />
  <defs
     id="defs5277" />
  <metadata
     id="metadata5280">
    <rdf:RDF>
      <cc:Work
         rdf:about="">
        <dc:format>image/svg+xml</dc:format>
        <dc:type
           rdf:resource="http://purl.org/dc/dcmitype/StillImage" />
        <dc:title />
      </cc:Work>
    </rdf:RDF>
  </metadata>
  <rect
     style="opacity:1;fill:#dbe2e3;fill-opacity:1;stroke:#162d50;stroke-width:1.99869037;stroke-linecap:round;stroke-miterlimit:4;stroke-dasharray:none;stroke-dashoffset:0;stroke-opacity:1"
     id="rect4885"
     width="72.333557"
     height="110.40385"
     x="-7.2963428"
     y="25.311197"
     ry="6.6623015"
     transform="matrix(0.96592582,-0.25881905,0.25881905,0.96592582,0,0)" />
  <g
     transform="matrix(0.64352889,-0.17243305,0.17243305,0.64352889,-85.891663,-21.433063)"
     style="font-style:normal;font-variant:normal;font-weight:normal;font-stretch:normal;font-size:40px;line-height:125%;font-family:'High Tide';-inkscape-font-specification:'High Tide';letter-spacing:0px;word-spacing:0px;fill:#162d50;fill-opacity:1;stroke:none;stroke-width:1px;stroke-linecap:butt;stroke-linejoin:miter;stroke-opacity:1"
     id="flowRoot4887">
    <path
       d="m 140.89742,141.19359 2.24,0 c 0.68,0 0.84,-0.36 0.84,-0.96 l 0,-2.72 c 0,-0.6 -0.16,-0.88 -0.84,-0.88 l -2.24,0 0,-15.28 c 0,-0.52 -0.48,-0.92 -1.08,-0.92 l -3.84,0 c -0.36,0 -0.56,0.28 -0.88,0.64 l -11.64,16.04 c -0.28,0.44 -0.32,0.44 -0.32,1.04 l 0,2.08 c 0,0.6 0.52,0.96 1.2,0.96 l 11.32,0 0,6.32 c 0,0.52 0.52,0.92 1.16,0.92 l 3,0 c 0.6,0 1.08,-0.4 1.08,-0.92 l 0,-6.32 z m -11.68,-4.56 6.44,-9.2 0,9.2 -6.44,0 z"
       style=""
       id="path4229" />
  </g>
  <rect
     ry="6.6623015"
     y="14.82918"
     x="38.869308"
     height="110.40385"
     width="72.333557"
     id="rect4897"
     style="opacity:1;fill:#dbe2e3;fill-opacity:1;stroke:#162d50;stroke-width:1.99869037;stroke-linecap:round;stroke-miterlimit:4;stroke-dasharray:none;stroke-dashoffset:0;stroke-opacity:1"
     transform="matrix(0.99144486,-0.13052619,0.13052619,0.99144486,0,0)" />
  <g
     transform="matrix(0.66053044,-0.08696048,0.08696048,0.66053044,-37.956753,-48.878982)"
     style="font-style:normal;font-variant:normal;font-weight:normal;font-stretch:normal;font-size:40px;line-height:125%;font-family:'High Tide';-inkscape-font-specification:'High Tide';letter-spacing:0px;word-spacing:0px;fill:#162d50;fill-opacity:1;stroke:none;stroke-width:1px;stroke-linecap:butt;stroke-linejoin:miter;stroke-opacity:1"
     id="flowRoot4899">
    <path
       d="m 140.89742,141.19359 2.24,0 c 0.68,0 0.84,-0.36 0.84,-0.96 l 0,-2.72 c 0,-0.6 -0.16,-0.88 -0.84,-0.88 l -2.24,0 0,-15.28 c 0,-0.52 -0.48,-0.92 -1.08,-0.92 l -3.84,0 c -0.36,0 -0.56,0.28 -0.88,0.64 l -11.64,16.04 c -0.28,0.44 -0.32,0.44 -0.32,1.04 l 0,2.08 c 0,0.6 0.52,0.96 1.2,0.96 l 11.32,0 0,6.32 c 0,0.52 0.52,0.92 1.16,0.92 l 3,0 c 0.6,0 1.08,-0.4 1.08,-0.92 l 0,-6.32 z m -11.68,-4.56 6.44,-9.2 0,9.2 -6.44,0 z"
       style=""
       id="path4232" />
  </g>
  <rect
     style="opacity:1;fill:#dbe2e3;fill-opacity:1;stroke:#162d50;stroke-width:1.99869037;stroke-linecap:round;stroke-miterlimit:4;stroke-dasharray:none;stroke-dashoffset:0;stroke-opacity:1"
     id="rect4909"
     width="72.333557"
     height="110.40385"
     x="88.950104"
     y="-11.521462"
     ry="6.6623015"
     transform="matrix(0.99144486,0.13052619,-0.13052619,0.99144486,0,0)" />
  <g
     transform="matrix(0.66053044,0.08696048,-0.08696048,0.66053044,29.079198,-76.625754)"
     style="font-style:normal;font-variant:normal;font-weight:normal;font-stretch:normal;font-size:40px;line-height:125%;font-family:'High Tide';-inkscape-font-specification:'High Tide';letter-spacing:0px;word-spacing:0px;fill:#162d50;fill-opacity:1;stroke:none;stroke-width:1px;stroke-linecap:butt;stroke-linejoin:miter;stroke-opacity:1"
     id="flowRoot4911">
    <path
       d="m 140.89742,141.19359 2.24,0 c 0.68,0 0.84,-0.36 0.84,-0.96 l 0,-2.72 c 0,-0.6 -0.16,-0.88 -0.84,-0.88 l -2.24,0 0,-15.28 c 0,-0.52 -0.48,-0.92 -1.08,-0.92 l -3.84,0 c -0.36,0 -0.56,0.28 -0.88,0.64 l -11.64,16.04 c -0.28,0.44 -0.32,0.44 -0.32,1.04 l 0,2.08 c 0,0.6 0.52,0.96 1.2,0.96 l 11.32,0 0,6.32 c 0,0.52 0.52,0.92 1.16,0.92 l 3,0 c 0.6,0 1.08,-0.4 1.08,-0.92 l 0,-6.32 z m -11.68,-4.56 6.44,-9.2 0,9.2 -6.44,0 z"
       style=""
       id="path4235" />
  </g>
  <rect
     style="opacity:1;fill:#dbe2e3;fill-opacity:1;stroke:#162d50;stroke-width:1.99869037;stroke-linecap:round;stroke-miterlimit:4;stroke-dasharray:none;stroke-dashoffset:0;stroke-opacity:1"
     id="rect4921"
     width="72.333557"
     height="110.40385"
     x="129.96399"
     y="-26.939217"
     ry="6.6623015"
     transform="matrix(0.96592582,0.25881905,-0.25881905,0.96592582,0,0)" />
  <g
     transform="matrix(0.64352889,0.17243305,-0.17243305,0.64352889,82.438873,-76.451844)"
     style="font-style:normal;font-variant:normal;font-weight:normal;font-stretch:normal;font-size:40px;line-height:125%;font-family:'High Tide';-inkscape-font-specification:'High Tide';letter-spacing:0px;word-spacing:0px;fill:#162d50;fill-opacity:1;stroke:none;stroke-width:1px;stroke-linecap:butt;stroke-linejoin:miter;stroke-opacity:1"
     id="flowRoot4923">
    <path
       d="m 140.89742,141.19359 2.24,0 c 0.68,0 0.84,-0.36 0.84,-0.96 l 0,-2.72 c 0,-0.6 -0.16,-0.88 -0.84,-0.88 l -2.24,0 0,-15.28 c 0,-0.52 -0.48,-0.92 -1.08,-0.92 l -3.84,0 c -0.36,0 -0.56,0.28 -0.88,0.64 l -11.64,16.04 c -0.28,0.44 -0.32,0.44 -0.32,1.04 l 0,2.08 c 0,0.6 0.52,0.96 1.2,0.96 l 11.32,0 0,6.32 c 0,0.52 0.52,0.92 1.16,0.92 l 3,0 c 0.6,0 1.08,-0.4 1.08,-0.92 l 0,-6.32 z m -11.68,-4.56 6.44,-9.2 0,9.2 -6.44,0 z"
       style=""
       id="path4238" />
  </g>
</svg>
