<?xml version="1.0" encoding="UTF-8" standalone="no"?>
<svg
   xmlns:dc="http://purl.org/dc/elements/1.1/"
   xmlns:cc="http://creativecommons.org/ns#"
   xmlns:rdf="http://www.w3.org/1999/02/22-rdf-syntax-ns#"
   xmlns:svg="http://www.w3.org/2000/svg"
   xmlns="http://www.w3.org/2000/svg"
   xmlns:sodipodi="http://sodipodi.sourceforge.net/DTD/sodipodi-0.dtd"
   xmlns:inkscape="http://www.inkscape.org/namespaces/inkscape"
   version="1.1"
   id="svg5275"
   viewBox="0 0 321.42675 161.46117"
   height="45.567928mm"
   width="90.713768mm"
   inkscape:version="0.91 r13725"
   sodipodi:docname="suite-of-seven.svg">
  <sodipodi:namedview
     pagecolor="#ffffff"
     bordercolor="#666666"
     borderopacity="1"
     objecttolerance="10"
     gridtolerance="10"
     guidetolerance="10"
     inkscape:pageopacity="0"
     inkscape:pageshadow="2"
     inkscape:window-width="1600"
     inkscape:window-height="837"
     id="namedview49"
     showgrid="false"
     inkscape:zoom="0.92089414"
     inkscape:cx="160.71337"
     inkscape:cy="79.644681"
     inkscape:window-x="-8"
     inkscape:window-y="-8"
     inkscape:window-maximized="1"
     inkscape:current-layer="svg5275" />
  <defs
     id="defs5277" />
  <metadata
     id="metadata5280">
    <rdf:RDF>
      <cc:Work
         rdf:about="">
        <dc:format>image/svg+xml</dc:format>
        <dc:type
           rdf:resource="http://purl.org/dc/dcmitype/StillImage" />
        <dc:title />
      </cc:Work>
    </rdf:RDF>
  </metadata>
  <rect
     ry="6.6623015"
     y="57.306599"
     x="-33.361141"
     height="110.40385"
     width="72.333557"
     id="rect5159"
     style="opacity:1;fill:#dbe2e3;fill-opacity:1;stroke:#162d50;stroke-width:1.99869037;stroke-linecap:round;stroke-miterlimit:4;stroke-dasharray:none;stroke-dashoffset:0;stroke-opacity:1"
     transform="matrix(0.8746197,-0.48480963,0.48480963,0.8746197,0,0)" />
  <g
     transform="matrix(0.582698,-0.32299478,0.32299478,0.582698,-95.810549,40.602941)"
     style="font-style:normal;font-variant:normal;font-weight:normal;font-stretch:normal;font-size:40px;line-height:125%;font-family:'High Tide';-inkscape-font-specification:'High Tide';letter-spacing:0px;word-spacing:0px;fill:#162d50;fill-opacity:1;stroke:none;stroke-width:1px;stroke-linecap:butt;stroke-linejoin:miter;stroke-opacity:1"
     id="flowRoot5161">
    <path
       d="m 126.89742,147.51359 c 0,0.52 0.52,0.92 1.16,0.92 l 2.92,0 c 0.68,0 1.16,-0.4 1.16,-0.92 l 0,-26.16 c 0,-0.52 -0.48,-0.92 -1.16,-0.92 l -6.24,0 c -0.68,0 -1.16,0.4 -1.16,0.92 l 0,2.76 c 0,0.6 0.48,0.96 1.16,0.96 l 2.16,0 0,22.44 z"
       style=""
       id="path4298" />
  </g>
  <rect
     style="opacity:1;fill:#dbe2e3;fill-opacity:1;stroke:#162d50;stroke-width:1.99869037;stroke-linecap:round;stroke-miterlimit:4;stroke-dasharray:none;stroke-dashoffset:0;stroke-opacity:1"
     id="rect5057"
     width="72.333557"
     height="110.40385"
     x="20.79607"
     y="50.039967"
     ry="6.6623015"
     transform="matrix(0.93041757,-0.36650123,0.36650123,0.93041757,0,0)" />
  <g
     transform="matrix(0.61987222,-0.24417416,0.24417416,0.61987222,-52.565034,1.1401007)"
     style="font-style:normal;font-variant:normal;font-weight:normal;font-stretch:normal;font-size:40px;line-height:125%;font-family:'High Tide';-inkscape-font-specification:'High Tide';letter-spacing:0px;word-spacing:0px;fill:#162d50;fill-opacity:1;stroke:none;stroke-width:1px;stroke-linecap:butt;stroke-linejoin:miter;stroke-opacity:1"
     id="flowRoot5059">
    <path
       d="m 126.25742,126.59359 c 0.44,0.52 1.16,0.6 1.68,0.16 1.8,-1.44 3.4,-2.04 4.8,-2.04 2.24,0 3.8,1.84 3.8,3.92 0,4.44 -7.16,11.88 -12.12,16 -0.12,0.16 -0.32,0.44 -0.32,0.6 l 0,2.24 c 0,0.52 0.48,0.92 1.16,0.92 l 16.12,0 c 0.64,0 1.16,-0.4 1.16,-0.92 l 0,-2.84 c 0,-0.6 -0.52,-0.92 -1.16,-0.92 l -9.16,0 c 6.76,-6.64 9.64,-10.68 9.64,-15.52 0,-5.16 -4.36,-8.2 -9.16,-8.2 -2.72,0 -5.56,0.96 -7.76,3.08 -0.28,0.28 -0.32,0.84 -0.12,1.2 l 1.44,2.32 z"
       style=""
       id="path4301" />
  </g>
  <rect
     ry="6.6623015"
     y="37.512012"
     x="69.582359"
     height="110.40385"
     width="72.333557"
     id="rect5069"
     style="opacity:1;fill:#dbe2e3;fill-opacity:1;stroke:#162d50;stroke-width:1.99869037;stroke-linecap:round;stroke-miterlimit:4;stroke-dasharray:none;stroke-dashoffset:0;stroke-opacity:1"
     transform="matrix(0.96592582,-0.25881905,0.25881905,0.96592582,0,0)" />
  <g
     transform="matrix(0.64352889,-0.17243305,0.17243305,0.64352889,-8.4747407,-29.54565)"
     style="font-style:normal;font-variant:normal;font-weight:normal;font-stretch:normal;font-size:40px;line-height:125%;font-family:'High Tide';-inkscape-font-specification:'High Tide';letter-spacing:0px;word-spacing:0px;fill:#162d50;fill-opacity:1;stroke:none;stroke-width:1px;stroke-linecap:butt;stroke-linejoin:miter;stroke-opacity:1"
     id="flowRoot5071">
    <path
       d="m 141.57742,126.19359 c 0.28,-0.28 0.52,-0.56 0.52,-1.04 l 0,-3.8 c 0,-0.52 -0.48,-0.92 -1.16,-0.92 l -15.08,0 c -0.6,0 -1.08,0.4 -1.08,0.92 l 0,2.8 c 0,0.6 0.48,0.96 1.08,0.96 l 9.68,0 -5.28,4.92 c -0.28,0.2 -0.4,0.76 -0.24,1.04 l -0.04,0 c 0.2,0.6 0.44,1.24 0.72,1.84 0.16,0.2 0.6,0.56 0.88,0.6 3.72,0.36 5.92,2 5.92,5.04 0,3.04 -2.44,5.56 -5.16,5.56 -1.64,0 -3.48,-1.08 -4.64,-2.8 -0.36,-0.52 -0.92,-0.64 -1.68,-0.28 l -2.28,1.44 c -0.48,0.28 -0.64,0.96 -0.32,1.32 1.88,3.2 5.12,5.08 8.92,5.08 5.64,0 10.44,-4.28 10.44,-10.32 0,-3.84 -2.24,-6.96 -5.92,-8.28 l 4.72,-4.08 z"
       style=""
       id="path4304" />
  </g>
  <rect
     ry="6.6623011"
     y="2.1260431"
     x="124.54659"
     height="110.40385"
     width="72.333557"
     id="rect5081"
     style="opacity:1;fill:#dbe2e3;fill-opacity:1;stroke:#162d50;stroke-width:1.99869037;stroke-linecap:round;stroke-miterlimit:4;stroke-dasharray:none;stroke-dashoffset:0;stroke-opacity:1" />
  <g
     style="font-style:normal;font-variant:normal;font-weight:normal;font-stretch:normal;font-size:26.64920425px;line-height:125%;font-family:'High Tide';-inkscape-font-specification:'High Tide';letter-spacing:0px;word-spacing:0px;fill:#162d50;fill-opacity:1;stroke:none;stroke-width:1px;stroke-linecap:butt;stroke-linejoin:miter;stroke-opacity:1"
     id="flowRoot5083">
    <path
       d="m 148.29613,27.949186 1.49236,0 c 0.45304,0 0.55963,-0.239843 0.55963,-0.639581 l 0,-1.812146 c 0,-0.399738 -0.10659,-0.586283 -0.55963,-0.586283 l -1.49236,0 0,-10.179996 c 0,-0.346439 -0.31979,-0.612931 -0.71952,-0.612931 l -2.55833,0 c -0.23984,0 -0.37309,0.186544 -0.58628,0.426387 l -7.75492,10.686331 c -0.18654,0.293141 -0.21319,0.293141 -0.21319,0.692879 l 0,1.385759 c 0,0.399738 0.34644,0.639581 0.79947,0.639581 l 7.54173,0 0,4.210574 c 0,0.346439 0.34644,0.612931 0.77283,0.612931 l 1.99869,0 c 0.39973,0 0.71952,-0.266492 0.71952,-0.612931 l 0,-4.210574 z m -7.78156,-3.03801 4.29052,-6.129317 0,6.129317 -4.29052,0 z"
       style=""
       id="path4307" />
  </g>
  <rect
     style="opacity:1;fill:#dbe2e3;fill-opacity:1;stroke:#162d50;stroke-width:1.99869037;stroke-linecap:round;stroke-miterlimit:4;stroke-dasharray:none;stroke-dashoffset:0;stroke-opacity:1"
     id="rect5093"
     width="72.333557"
     height="110.40385"
     x="168.5585"
     y="-45.679367"
     ry="6.6623015"
     transform="matrix(0.96592582,0.25881905,-0.25881905,0.96592582,0,0)" />
  <g
     transform="matrix(0.64352889,0.17243305,-0.17243305,0.64352889,124.56861,-84.564447)"
     style="font-style:normal;font-variant:normal;font-weight:normal;font-stretch:normal;font-size:40px;line-height:125%;font-family:'High Tide';-inkscape-font-specification:'High Tide';letter-spacing:0px;word-spacing:0px;fill:#162d50;fill-opacity:1;stroke:none;stroke-width:1px;stroke-linecap:butt;stroke-linejoin:miter;stroke-opacity:1"
     id="flowRoot5095">
    <path
       d="m 124.73742,133.47359 c 0,0.52 0.68,0.92 1.28,0.92 1.08,-0.12 2.52,-0.28 3.76,-0.28 3.08,0 6.4,0.84 6.4,4.84 0,3.8 -2.64,5.36 -5.4,5.36 -1.32,0 -2.48,-0.12 -4.08,-1.2 -0.52,-0.28 -1.08,-0.32 -1.52,0.28 l -1.32,2.16 c -0.28,0.48 -0.24,1.04 0.24,1.36 1.96,1.24 4.44,1.96 6.72,1.96 5.72,0 10.6,-3.12 10.6,-9.96 0,-6.24 -5.08,-9.2 -11.76,-9.2 l -0.04,0 0,-4.6 9.48,0 c 0.6,0 1.08,-0.4 1.08,-0.92 l 0,-2.8 c 0,-0.52 -0.48,-0.92 -1.08,-0.92 l -13.28,0 c -0.6,0 -1.08,0.4 -1.08,0.92 l 0,12.08 z"
       style=""
       id="path4310" />
  </g>
  <rect
     ry="6.6623015"
     y="-67.763374"
     x="205.93143"
     height="110.40385"
     width="72.333557"
     id="rect5105"
     style="opacity:1;fill:#dbe2e3;fill-opacity:1;stroke:#162d50;stroke-width:1.99869037;stroke-linecap:round;stroke-miterlimit:4;stroke-dasharray:none;stroke-dashoffset:0;stroke-opacity:1"
     transform="matrix(0.93041757,0.36650123,-0.36650123,0.93041757,0,0)" />
  <g
     transform="matrix(0.61987222,0.24417416,-0.24417416,0.61987222,176.20708,-76.769411)"
     style="font-style:normal;font-variant:normal;font-weight:normal;font-stretch:normal;font-size:40px;line-height:125%;font-family:'High Tide';-inkscape-font-specification:'High Tide';letter-spacing:0px;word-spacing:0px;fill:#162d50;fill-opacity:1;stroke:none;stroke-width:1px;stroke-linecap:butt;stroke-linejoin:miter;stroke-opacity:1"
     id="flowRoot5107">
    <path
       d="m 135.73742,129.67359 c -2.04,0 -4.56,1.08 -5.96,3.28 0.12,-3.68 1.04,-8.36 5.36,-8.36 1.72,0 3.16,0.92 3.52,2.68 0.12,0.36 0.56,0.68 1.16,0.68 l 2.88,0 c 0.84,0 1.24,-0.32 1.16,-1 -0.92,-4.76 -4.24,-6.96 -8.6,-6.96 -8.24,0 -10.52,7.88 -10.52,15.12 0,7.2 2.44,13.76 10.68,13.76 6.36,0 9.08,-4.84 9.08,-9.96 0,-3.56 -1.76,-9.24 -8.76,-9.24 z m -0.52,14.56 c -3.04,0 -4.36,-2.6 -4.36,-4.96 0,-2.56 1.44,-5 4.48,-5 2.44,0 3.88,2.36 3.88,4.64 0.12,2.52 -1.32,5.32 -4,5.32 z"
       style=""
       id="path4313" />
  </g>
  <rect
     style="opacity:1;fill:#dbe2e3;fill-opacity:1;stroke:#162d50;stroke-width:1.99869037;stroke-linecap:round;stroke-miterlimit:4;stroke-dasharray:none;stroke-dashoffset:0;stroke-opacity:1"
     id="rect5147"
     width="72.333557"
     height="110.40385"
     x="242.15373"
     y="-98.524208"
     ry="6.6623015"
     transform="matrix(0.8746197,0.48480963,-0.48480963,0.8746197,0,0)" />
  <g
     transform="matrix(0.582698,0.32299478,-0.32299478,0.582698,231.31391,-62.456108)"
     style="font-style:normal;font-variant:normal;font-weight:normal;font-stretch:normal;font-size:40px;line-height:125%;font-family:'High Tide';-inkscape-font-specification:'High Tide';letter-spacing:0px;word-spacing:0px;fill:#162d50;fill-opacity:1;stroke:none;stroke-width:1px;stroke-linecap:butt;stroke-linejoin:miter;stroke-opacity:1"
     id="flowRoot5149">
    <path
       d="m 123.37742,124.51359 c 0,0.52 0.52,0.92 1.16,0.92 l 11.24,0 -10.12,21.72 c -0.28,0.68 0.16,1.28 1.12,1.28 l 3.36,0 c 0.28,0 0.8,-0.36 1,-0.64 l 11.04,-24.28 0,-2.16 c 0,-0.52 -0.52,-0.92 -1.16,-0.92 l -16.48,0 c -0.64,0 -1.16,0.4 -1.16,0.92 l 0,3.16 z"
       style=""
       id="path4316" />
  </g>
</svg>
