<?xml version="1.0" encoding="UTF-8" standalone="no"?>
<svg
   xmlns:dc="http://purl.org/dc/elements/1.1/"
   xmlns:cc="http://creativecommons.org/ns#"
   xmlns:rdf="http://www.w3.org/1999/02/22-rdf-syntax-ns#"
   xmlns:svg="http://www.w3.org/2000/svg"
   xmlns="http://www.w3.org/2000/svg"
   xmlns:sodipodi="http://sodipodi.sourceforge.net/DTD/sodipodi-0.dtd"
   xmlns:inkscape="http://www.inkscape.org/namespaces/inkscape"
   version="1.1"
   id="svg5275"
   viewBox="0 0 265.52207 146.69653"
   height="41.40102mm"
   width="74.936226mm"
   inkscape:version="0.91 r13725"
   sodipodi:docname="suite-of-five.svg">
  <sodipodi:namedview
     pagecolor="#ffffff"
     bordercolor="#666666"
     borderopacity="1"
     objecttolerance="10"
     gridtolerance="10"
     guidetolerance="10"
     inkscape:pageopacity="0"
     inkscape:pageshadow="2"
     inkscape:window-width="701"
     inkscape:window-height="480"
     id="namedview37"
     showgrid="false"
     inkscape:zoom="1.114785"
     inkscape:cx="132.76103"
     inkscape:cy="72.45123"
     inkscape:window-x="0"
     inkscape:window-y="0"
     inkscape:window-maximized="0"
     inkscape:current-layer="svg5275" />
  <defs
     id="defs5277" />
  <metadata
     id="metadata5280">
    <rdf:RDF>
      <cc:Work
         rdf:about="">
        <dc:format>image/svg+xml</dc:format>
        <dc:type
           rdf:resource="http://purl.org/dc/dcmitype/StillImage" />
        <dc:title />
      </cc:Work>
    </rdf:RDF>
  </metadata>
  <rect
     ry="6.6623015"
     y="41.466431"
     x="-17.385077"
     height="110.40385"
     width="72.333557"
     id="rect4743"
     style="opacity:1;fill:#dbe2e3;fill-opacity:1;stroke:#162d50;stroke-width:1.99869037;stroke-linecap:round;stroke-miterlimit:4;stroke-dasharray:none;stroke-dashoffset:0;stroke-opacity:1"
     transform="matrix(0.93041757,-0.36650123,0.36650123,0.93041757,0,0)" />
  <g
     transform="matrix(0.61987222,-0.24417416,0.24417416,0.61987222,-91.231654,7.1565707)"
     style="font-style:normal;font-variant:normal;font-weight:normal;font-stretch:normal;font-size:40px;line-height:125%;font-family:'High Tide';-inkscape-font-specification:'High Tide';letter-spacing:0px;word-spacing:0px;fill:#162d50;fill-opacity:1;stroke:none;stroke-width:1px;stroke-linecap:butt;stroke-linejoin:miter;stroke-opacity:1"
     id="flowRoot4745">
    <path
       d="m 126.89742,147.51359 c 0,0.52 0.52,0.92 1.16,0.92 l 2.92,0 c 0.68,0 1.16,-0.4 1.16,-0.92 l 0,-26.16 c 0,-0.52 -0.48,-0.92 -1.16,-0.92 l -6.24,0 c -0.68,0 -1.16,0.4 -1.16,0.92 l 0,2.76 c 0,0.6 0.48,0.96 1.16,0.96 l 2.16,0 0,22.44 z"
       style=""
       id="path4252" />
  </g>
  <rect
     style="opacity:1;fill:#dbe2e3;fill-opacity:1;stroke:#162d50;stroke-width:1.99869037;stroke-linecap:round;stroke-miterlimit:4;stroke-dasharray:none;stroke-dashoffset:0;stroke-opacity:1"
     id="rect4165-5"
     width="72.333557"
     height="110.40385"
     x="36.59021"
     y="31.942471"
     ry="6.6623015"
     transform="matrix(0.96592582,-0.25881905,0.25881905,0.96592582,0,0)" />
  <g
     transform="matrix(0.64352889,-0.17243305,0.17243305,0.64352889,-41.784211,-26.38642)"
     style="font-style:normal;font-variant:normal;font-weight:normal;font-stretch:normal;font-size:40px;line-height:125%;font-family:'High Tide';-inkscape-font-specification:'High Tide';letter-spacing:0px;word-spacing:0px;fill:#162d50;fill-opacity:1;stroke:none;stroke-width:1px;stroke-linecap:butt;stroke-linejoin:miter;stroke-opacity:1"
     id="flowRoot4167-7">
    <path
       d="m 126.25742,126.59359 c 0.44,0.52 1.16,0.6 1.68,0.16 1.8,-1.44 3.4,-2.04 4.8,-2.04 2.24,0 3.8,1.84 3.8,3.92 0,4.44 -7.16,11.88 -12.12,16 -0.12,0.16 -0.32,0.44 -0.32,0.6 l 0,2.24 c 0,0.52 0.48,0.92 1.16,0.92 l 16.12,0 c 0.64,0 1.16,-0.4 1.16,-0.92 l 0,-2.84 c 0,-0.6 -0.52,-0.92 -1.16,-0.92 l -9.16,0 c 6.76,-6.64 9.64,-10.68 9.64,-15.52 0,-5.16 -4.36,-8.2 -9.16,-8.2 -2.72,0 -5.56,0.96 -7.76,3.08 -0.28,0.28 -0.32,0.84 -0.12,1.2 l 1.44,2.32 z"
       style=""
       id="path4255" />
  </g>
  <rect
     style="opacity:1;fill:#dbe2e3;fill-opacity:1;stroke:#162d50;stroke-width:1.99869037;stroke-linecap:round;stroke-miterlimit:4;stroke-dasharray:none;stroke-dashoffset:0;stroke-opacity:1"
     id="rect4755"
     width="72.333557"
     height="110.40385"
     x="96.594276"
     y="0.9993431"
     ry="6.6623011" />
  <g
     transform="matrix(0.66623013,0,0,0.66623013,26.472926,-67.245002)"
     style="font-style:normal;font-variant:normal;font-weight:normal;font-stretch:normal;font-size:40px;line-height:125%;font-family:'High Tide';-inkscape-font-specification:'High Tide';letter-spacing:0px;word-spacing:0px;fill:#162d50;fill-opacity:1;stroke:none;stroke-width:1px;stroke-linecap:butt;stroke-linejoin:miter;stroke-opacity:1"
     id="flowRoot4757">
    <path
       d="m 141.57742,126.19359 c 0.28,-0.28 0.52,-0.56 0.52,-1.04 l 0,-3.8 c 0,-0.52 -0.48,-0.92 -1.16,-0.92 l -15.08,0 c -0.6,0 -1.08,0.4 -1.08,0.92 l 0,2.8 c 0,0.6 0.48,0.96 1.08,0.96 l 9.68,0 -5.28,4.92 c -0.28,0.2 -0.4,0.76 -0.24,1.04 l -0.04,0 c 0.2,0.6 0.44,1.24 0.72,1.84 0.16,0.2 0.6,0.56 0.88,0.6 3.72,0.36 5.92,2 5.92,5.04 0,3.04 -2.44,5.56 -5.16,5.56 -1.64,0 -3.48,-1.08 -4.64,-2.8 -0.36,-0.52 -0.92,-0.64 -1.68,-0.28 l -2.28,1.44 c -0.48,0.28 -0.64,0.96 -0.32,1.32 1.88,3.2 5.12,5.08 8.92,5.08 5.64,0 10.44,-4.28 10.44,-10.32 0,-3.84 -2.24,-6.96 -5.92,-8.28 l 4.72,-4.08 z"
       style=""
       id="path4258" />
  </g>
  <rect
     ry="6.6623015"
     y="-36.779709"
     x="147.55089"
     height="110.40385"
     width="72.333557"
     id="rect4767"
     style="opacity:1;fill:#dbe2e3;fill-opacity:1;stroke:#162d50;stroke-width:1.99869037;stroke-linecap:round;stroke-miterlimit:4;stroke-dasharray:none;stroke-dashoffset:0;stroke-opacity:1"
     transform="matrix(0.96592582,0.25881905,-0.25881905,0.96592582,0,0)" />
  <g
     transform="matrix(0.64352889,0.17243305,-0.17243305,0.64352889,101.97342,-81.405207)"
     style="font-style:normal;font-variant:normal;font-weight:normal;font-stretch:normal;font-size:40px;line-height:125%;font-family:'High Tide';-inkscape-font-specification:'High Tide';letter-spacing:0px;word-spacing:0px;fill:#162d50;fill-opacity:1;stroke:none;stroke-width:1px;stroke-linecap:butt;stroke-linejoin:miter;stroke-opacity:1"
     id="flowRoot4769">
    <path
       d="m 140.89742,141.19359 2.24,0 c 0.68,0 0.84,-0.36 0.84,-0.96 l 0,-2.72 c 0,-0.6 -0.16,-0.88 -0.84,-0.88 l -2.24,0 0,-15.28 c 0,-0.52 -0.48,-0.92 -1.08,-0.92 l -3.84,0 c -0.36,0 -0.56,0.28 -0.88,0.64 l -11.64,16.04 c -0.28,0.44 -0.32,0.44 -0.32,1.04 l 0,2.08 c 0,0.6 0.52,0.96 1.2,0.96 l 11.32,0 0,6.32 c 0,0.52 0.52,0.92 1.16,0.92 l 3,0 c 0.6,0 1.08,-0.4 1.08,-0.92 l 0,-6.32 z m -11.68,-4.56 6.44,-9.2 0,9.2 -6.44,0 z"
       style=""
       id="path4261" />
  </g>
  <rect
     style="opacity:1;fill:#dbe2e3;fill-opacity:1;stroke:#162d50;stroke-width:1.99869037;stroke-linecap:round;stroke-miterlimit:4;stroke-dasharray:none;stroke-dashoffset:0;stroke-opacity:1"
     id="rect4779"
     width="72.333557"
     height="110.40385"
     x="192.09793"
     y="-55.847744"
     ry="6.6623015"
     transform="matrix(0.93041757,0.36650123,-0.36650123,0.93041757,0,0)" />
  <g
     transform="matrix(0.61987222,0.24417416,-0.24417416,0.61987222,158.96906,-70.752891)"
     style="font-style:normal;font-variant:normal;font-weight:normal;font-stretch:normal;font-size:40px;line-height:125%;font-family:'High Tide';-inkscape-font-specification:'High Tide';letter-spacing:0px;word-spacing:0px;fill:#162d50;fill-opacity:1;stroke:none;stroke-width:1px;stroke-linecap:butt;stroke-linejoin:miter;stroke-opacity:1"
     id="flowRoot4781">
    <path
       d="m 124.73742,133.47359 c 0,0.52 0.68,0.92 1.28,0.92 1.08,-0.12 2.52,-0.28 3.76,-0.28 3.08,0 6.4,0.84 6.4,4.84 0,3.8 -2.64,5.36 -5.4,5.36 -1.32,0 -2.48,-0.12 -4.08,-1.2 -0.52,-0.28 -1.08,-0.32 -1.52,0.28 l -1.32,2.16 c -0.28,0.48 -0.24,1.04 0.24,1.36 1.96,1.24 4.44,1.96 6.72,1.96 5.72,0 10.6,-3.12 10.6,-9.96 0,-6.24 -5.08,-9.2 -11.76,-9.2 l -0.04,0 0,-4.6 9.48,0 c 0.6,0 1.08,-0.4 1.08,-0.92 l 0,-2.8 c 0,-0.52 -0.48,-0.92 -1.08,-0.92 l -13.28,0 c -0.6,0 -1.08,0.4 -1.08,0.92 l 0,12.08 z"
       style=""
       id="path4264" />
  </g>
</svg>
